<?xml version="1.0" encoding="UTF-8"?>
<svg id="Layer_1" data-name="Layer 1" xmlns="http://www.w3.org/2000/svg" viewBox="0 0 363.45 310.32">
  <path d="M329.64,99.75h-183.38c-.66,0-5-1.19-5.93-1.57-13.01-5.36-10.31-25.61,3.66-27.7h207.04c7.29,1.46,12.09,7.23,12.41,14.64l-30.59,123.21c-6.05,18.22-21.15,29.43-40.31,30.94-46.99-2.27-96.64,2.91-143.32,0-18.44-1.15-33.08-10.95-40.23-28.02L59.66,36.36c-3.02-5.23-8.93-6.71-14.61-7.14-10.5-.79-22.77,1.18-33.03.03-16.06-1.8-15.98-26.57-.02-28.52C20.84-.35,45.69-.19,54.58.94c18.64,2.37,29.98,16.91,35.44,33.56,17.62,53.77,28.8,111.46,45.9,165.6,1.87,4.72,5.73,8.26,10.68,9.57l144.44.36c6.98-.31,12.56-4.48,14.23-11.27l24.37-99.01Z" fill="#fff"/>
  <path d="M268.71,263.45c28.02-3.62,36.21,37.14,10.89,45.38-33.33,10.85-44.19-41.08-10.89-45.38Z" fill="#fff"/>
  <path d="M166.71,263.45c29.22-3.78,36.81,39.65,8.62,46.11-31.95,7.32-40.21-42.03-8.62-46.11Z" fill="#fff"/>
</svg>